# xmcd
#
# Track frame offsets:
#	150
#	9681
#	18729
#	27438
#	38154
#	48334
#	58965
#	73090
#	84088
#	93348
#	102961
#	112430
#	123084
#	133577
#	143942
#	155654
#	167353
#	178451
#	187684
#	196579
#	210246
#	226655
#	240873
#	250115
#	261092
#	271187
#	280998
#	291890
#	302770
#	314667
#
# Disc length: 4329 seconds
#
# Revision: 1
# Processed by: cddbd v1.4PL0 Copyright (c) Steve Scherf et al.
# Submitted via: audiograbber 1.82.02
#
DISCID=a410e71e
DTITLE=The Everly Brothers - 30  Best Songs
DYEAR=2001
DGENRE=Country
TTITLE0=Love Of My Life
TTITLE1=Crying In The Rain
TTITLE2=Since You Broke My Heart
TTITLE3=Love Hurts
TTITLE4=I Wonder If I Care As Much
TTITLE5=All I Have To Do Is Dream
TTITLE6=Ebony Eyes
TTITLE7=Devoted To You
TTITLE8=Like Strangers
TTITLE9=Maybe Tomorrow
TTITLE10=Oh What A Feeling
TTITLE11=Old-Fashioned
TTITLE12=Walk Right Back
TTITLE13=Brand New Heartache
TTITLE14=Oh So Many Years
TTITLE15=So Sad
TTITLE16=Take A Message To Mary
TTITLE17=When Will I Be Loved
TTITLE18=Problems
TTITLE19=Down In The Willow Garden
TTITLE20=I'm Here To Get My Baby
TTITLE21=That Silver Haired Daddy Of Mine
TTITLE22=Wake Up Little Suzy
TTITLE23=Cathy's Clown
TTITLE24=Claudette
TTITLE25=Poor Jenny
TTITLE26=Till I Kissed You
TTITLE27=Bye Bye Love
TTITLE28=Let It Be Me
TTITLE29=Bird Dog
EXTD=
EXTT0=
EXTT1=
EXTT2=
EXTT3=
EXTT4=
EXTT5=
EXTT6=
EXTT7=
EXTT8=
EXTT9=
EXTT10=
EXTT11=
EXTT12=
EXTT13=
EXTT14=
EXTT15=
EXTT16=
EXTT17=
EXTT18=
EXTT19=
EXTT20=
EXTT21=
EXTT22=
EXTT23=
EXTT24=
EXTT25=
EXTT26=
EXTT27=
EXTT28=
EXTT29=
PLAYORDER=
